<?xml version="1.0" encoding="utf-8"?>
<svg xmlns="http://www.w3.org/2000/svg" viewBox="0 0 500 500" xmlns:bx="https://boxy-svg.com" width="500px" height="500px"><defs><radialGradient gradientUnits="userSpaceOnUse" cx="224.606" cy="436.399" r="22.819" id="gradient-0"><stop offset="0" style="stop-color: rgb(235, 204, 169);"/><stop offset="1" style="stop-color: rgb(238, 193, 6);"/></radialGradient><linearGradient gradientUnits="userSpaceOnUse" x1="253.253" y1="232.965" x2="253.253" y2="457.276" id="gradient-1"><stop offset="0" style="stop-color: rgb(248, 171, 130);"/><stop offset="1" style="stop-color: rgb(179, 58, 6);"/></linearGradient><linearGradient gradientUnits="userSpaceOnUse" x1="337.248" y1="303.852" x2="337.248" y2="453.392" id="gradient-2"><stop offset="0" style="stop-color: rgb(251, 136, 31);"/><stop offset="1" style="stop-color: rgb(234, 171, 133);"/></linearGradient><radialGradient gradientUnits="userSpaceOnUse" cx="272.673" cy="123.237" r="73.799" id="gradient-3"><stop offset="0" style="stop-color: rgb(240, 199, 162);"/><stop offset="1" style="stop-color: rgb(140, 76, 6);"/></radialGradient><bx:export><bx:file format="svg" path="Без назви.svg"/></bx:export></defs><path style="fill: rgb(245, 162, 36);" d="M 170.714 364.056 L 194.99 249.473 L 223.15 212.574 L 215.382 196.066 L 225.092 185.384 L 219.266 161.108 L 274.616 181.5 L 329.965 168.877 L 352.299 189.269 L 358.126 240.734 L 349.386 295.112 L 332.878 444.653 L 295.008 440.769 L 246.455 445.624 L 205.671 441.74 L 99.827 445.624 L 84.29 428.145 L 88.174 410.666 L 185.279 405.811 L 205.671 441.74 Z"/><path style="fill: url(&quot;#gradient-0&quot;);" d="M 211.498 454.363 L 247.426 449.508 L 234.803 430.087 L 227.034 418.435 L 210.527 426.203 L 201.787 441.74 L 211.498 454.363 Z"/><path style="fill: url(&quot;#gradient-1&quot;);" d="M 292.094 453.392 L 296.95 445.624 L 289.181 428.145 L 277.529 378.622 L 279.471 352.404 L 265.876 322.301 L 288.21 290.257 L 290.152 267.923 L 247.426 240.734 L 226.063 232.965 L 217.324 256.27 L 218.295 294.141 L 209.555 302.881 L 219.266 356.288 L 239.658 395.13 L 249.368 433 L 250.339 452.421 L 266.847 457.276 L 292.094 453.392 Z"/><path style="fill: url(&quot;#gradient-2&quot;);" d="M 324.139 263.068 L 315.4 334.925 L 322.197 341.722 L 315.4 356.288 L 308.602 392.216 L 307.631 425.232 L 312.486 452.421 L 328.994 453.392 L 349.386 453.392 L 360.068 440.769 L 347.444 423.29 L 346.473 408.724 L 361.039 399.985 L 366.865 374.738 L 361.039 324.243 L 358.126 257.242 L 343.681 256.028 L 324.139 263.068 Z"/><path style="fill: url(&quot;#gradient-3&quot;);" d="M 220.237 129.064 L 203.729 107.701 L 198.874 88.28 L 207.613 82.454 L 229.947 99.933 L 254.224 86.338 L 281.413 74.685 L 298.892 80.512 L 306.66 67.888 L 320.255 59.149 L 326.081 79.541 L 322.197 88.28 L 331.907 109.643 L 340.647 127.122 L 337.734 147.514 L 346.473 159.166 L 334.821 164.992 L 283.355 187.326 L 243.542 176.645 L 224.121 173.732 L 213.44 151.398 L 220.237 129.064 Z"/><path style="stroke: rgb(0, 0, 0); fill: rgb(155, 165, 121);" d="M 243.542 102.846 L 260.05 98.962 L 273.645 99.933 L 257.137 106.73 L 243.542 102.846 Z"/><path style="stroke: rgb(0, 0, 0); fill: rgb(119, 133, 76);" d="M 293.066 95.077 L 300.834 83.425 L 313.458 88.28 L 302.776 91.193 L 293.066 95.077 Z"/><path style="stroke: rgb(0, 0, 0); fill: rgb(81, 53, 41);" d="M 265.876 133.919 L 276.558 132.948 L 286.268 111.585 L 294.037 112.556 L 309.573 127.122 L 302.776 133.919 L 293.066 131.006 L 284.326 137.803 L 265.876 133.919 Z"/><path style="stroke: rgb(0, 0, 0); fill: rgb(220, 116, 53);" d="M 277.529 102.846 L 287.239 94.106 L 297.921 99.933 L 286.268 104.788 L 277.529 102.846 Z"/></svg>